#!OML:ASF X:\für Bonn\!DataBase\2005_08_10_Bjorn_Final\c3d\bjorn.ASF
:FULLY-SPECIFIED
:DEGREES
110
root 1.81232 17.6596 -1.77881 -226.854 4.66314 173.912
lowerback 0.87893 5.96024 4.66663
upperback 14.0458 10.3716 -1.4956
thorax 16.3182 6.65395 -2.51915
lowerneck 23.4676 5.95829 3.99497
upperneck 17.9837 5.23817 -2.7378
head 2.36417 1.28781 -1.90438
rclavicle -1.37559e-013 7.15625e-014
rhumerus 42.1647 13.5844 -37.1723
rradius 43.1744
rwrist 0.203649
rhand -1.06876 13.6088
rfingers 7.12502
rthumb 24.5663 -14.8351
lclavicle -1.37559e-013 7.15625e-014
lhumerus 7.94146 14.0951 6.76108
lradius 88.2298
lwrist -15.0749
lhand -58.9929 -27.5727
lfingers 7.12502
lthumb -31.1925 -0.208069
rfemur 35.5673 3.73162 11.5667
rtibia 42.0452
rfoot 1.15326 37.8517
rtoes 19.8896
lfemur -51.6169 14.4224 -13.0723
ltibia 39.0619
lfoot 25.7579 -7.17026
ltoes -9.44174
111
root 1.76773 17.6422 -1.78027 -226.482 4.56514 174.003
lowerback 0.285673 5.87255 4.70233
upperback 13.9143 10.0532 -1.15214
thorax 16.4116 6.4087 -2.15158
lowerneck 23.276 5.87092 4.0206
upperneck 17.3604 5.33012 -3.43091
head 2.19229 1.39981 -2.14536
rclavicle -2.78299e-015 -3.81667e-014
rhumerus 41.887 13.4991 -35.9625
rradius 45.3615
rwrist -0.778545
rhand -0.676003 13.8295
rfingers 7.12502
rthumb 24.9427 -14.5627
lclavicle -2.78299e-015 -3.81667e-014
lhumerus 6.63756 13.8693 7.0908
lradius 89.028
lwrist -15.2761
lhand -58.8345 -27.7026
lfingers 7.12502
lthumb -31.0416 -0.309077
rfemur 35.3538 3.98138 12.0261
rtibia 42.0654
rfoot -0.571191 37.4519
rtoes 19.1688
lfemur -50.7165 13.9788 -13.5488
ltibia 39.7737
lfoot 25.1457 -6.62462
ltoes -10.2943
112
root 1.72383 17.6296 -1.77567 -226.096 4.4255 174.08
lowerback -0.220505 5.79761 4.72456
upperback 13.761 9.77424 -0.861178
thorax 16.4421 6.19274 -1.84508
lowerneck 23.1082 5.77637 4.06191
upperneck 16.7451 5.39642 -4.08163
head 2.01983 1.49809 -2.37565
rclavicle 3.85642e-014 -6.04305e-014
rhumerus 41.4261 13.408 -34.8603
rradius 47.4911
rwrist -1.28954
rhand -0.209672 14.1243
rfingers 7.12502
rthumb 25.3895 -14.2051
lclavicle 3.85642e-014 -6.04305e-014
lhumerus 5.39978 13.6005 7.49501
lradius 89.9149
lwrist -15.3896
lhand -58.672 -27.7117
lfingers 7.12502
lthumb -30.8867 -0.288734
rfemur 35.1723 4.3237 12.6155
rtibia 41.9944
rfoot -2.43945 36.8469
rtoes 18.066
lfemur -49.8083 13.5189 -14.0686
ltibia 40.3674
lfoot 23.7295 -6.01905
ltoes -12.044
113
root 1.6806 17.6203 -1.7658 -225.68 4.25119 174.15
lowerback -0.660754 5.73789 4.75195
upperback 13.6006 9.54264 -0.638693
thorax 16.4482 6.01462 -1.61916
lowerneck 22.9671 5.61981 4.21443
upperneck 16.0543 5.4053 -4.73778
head 1.8188 1.58053 -2.6277
rclavicle -2.10712e-014 -6.36111e-015
rhumerus 40.7581 13.3278 -33.7807
rradius 49.6466
rwrist -1.42362
rhand 0.0945843 14.2519
rfingers 7.12502
rthumb 25.681 -14.0359
lclavicle -2.10712e-014 -6.36111e-015
lhumerus 4.24554 13.3401 7.9593
lradius 90.9238
lwrist -15.424
lhand -58.5444 -27.5088
lfingers 7.12502
lthumb -30.765 -0.0627898
rfemur 34.9833 4.68674 13.2263
rtibia 41.8601
rfoot -4.22203 36.1226
rtoes 17.0215
lfemur -48.9286 13.0074 -14.5879
ltibia 40.8608
lfoot 21.803 -5.21146
ltoes -13.9699
114
root 1.63844 17.6196 -1.74863 -225.255 4.03777 174.205
lowerback -1.03513 5.67713 4.75463
upperback 13.4567 9.33918 -0.467432
thorax 16.4457 5.86094 -1.43896
lowerneck 22.7986 5.42656 4.43074
upperneck 15.3051 5.38115 -5.4427
head 1.60336 1.65598 -2.90924
rclavicle 3.29983e-014 -2.78299e-014
rhumerus 39.9055 13.2851 -32.6462
rradius 51.9619
rwrist -1.51297
rhand 0.150873 14.2972
rfingers 7.12502
rthumb 25.7349 -13.9827
lclavicle 3.29983e-014 -2.78299e-014
lhumerus 3.20483 13.1444 8.63303
lradius 91.9738
lwrist -15.3975
lhand -58.4418 -27.0933
lfingers 7.12502
lthumb -30.6673 0.37104
rfemur 34.7625 4.98121 13.6933
rtibia 41.6951
rfoot -5.83364 35.4476
rtoes 15.8245
lfemur -48.0921 12.4789 -15.1437
ltibia 41.2543
lfoot 19.7345 -4.2013
ltoes -14.0319
115
root 1.59676 17.6204 -1.72717 -224.829 3.7904 174.267
lowerback -1.31784 5.61299 4.74975
upperback 13.3184 9.1542 -0.337341
thorax 16.4026 5.72658 -1.30902
lowerneck 22.58 5.22576 4.65251
upperneck 14.5567 5.33675 -6.11149
head 1.39359 1.72213 -3.18023
rclavicle 8.18993e-014 -3.89618e-014
rhumerus 38.8189 13.2246 -31.628
rradius 54.4069
rwrist -1.65033
rhand 0.187303 14.3789
rfingers 7.12502
rthumb 25.7698 -13.8959
lclavicle 8.18993e-014 -3.89618e-014
lhumerus 2.32069 12.9633 9.53979
lradius 92.9692
lwrist -15.2567
lhand -58.532 -26.7946
lfingers 7.12502
lthumb -30.7532 0.653588
rfemur 34.5092 5.19859 14.053
rtibia 41.5466
rfoot -7.26927 34.8149
rtoes 14.7242
lfemur -47.2626 11.8945 -15.6852
ltibia 41.537
lfoot 17.5065 -2.8945
ltoes -12.9622
116
root 1.55529 17.6156 -1.70595 -224.399 3.51775 174.3
lowerback -1.53498 5.55324 4.7231
upperback 13.2067 9.00623 -0.263482
thorax 16.3641 5.62143 -1.22781
lowerneck 22.3245 5.02024 4.89328
upperneck 13.8563 5.3138 -6.95953
head 1.10118 1.79382 -3.25698
rclavicle 4.1546e-014 -4.05521e-014
rhumerus 37.5225 13.0787 -30.8103
rradius 56.9078
rwrist -1.77756
rhand 0.212902 14.5884
rfingers 7.12502
rthumb 25.7943 -13.6829
lclavicle 4.1546e-014 -4.05521e-014
lhumerus 1.54329 12.7652 10.5795
lradius 93.9124
lwrist -15.023
lhand -58.2971 -27.2897
lfingers 7.12502
lthumb -30.5292 0.200442
rfemur 34.226 5.42393 14.343
rtibia 41.4297
rfoot -8.55798 34.192
rtoes 13.7518
lfemur -46.428 11.313 -16.2581
ltibia 41.7564
lfoot 15.1742 -1.40386
ltoes -11.5954
